<?xml version="1.0" standalone="no"?>
<!DOCTYPE svg PUBLIC "-//W3C//DTD SVG 20010904//EN"
 "http://www.w3.org/TR/2001/REC-SVG-20010904/DTD/svg10.dtd">
<svg version="1.0" xmlns="http://www.w3.org/2000/svg"
 width="400.000000pt" height="400.000000pt" viewBox="0 0 400.000000 400.000000"
 preserveAspectRatio="xMidYMid meet">
<metadata>
Created by potrace 1.14, written by Peter Selinger 2001-2017
</metadata>
<g transform="translate(0.000000,400.000000) scale(0.100000,-0.100000)"
fill="#000000" stroke="none">
<path d="M0 3406 l0 -594 21 5 c12 4 29 19 38 34 9 16 21 29 26 29 6 0 21 11
33 25 13 14 46 33 73 42 27 10 51 25 54 33 3 9 31 28 63 44 31 15 68 34 82 42
14 7 32 14 41 14 9 0 22 11 29 25 7 14 17 25 22 25 4 0 8 8 8 18 1 26 22 48
53 54 29 6 29 5 23 -36 -5 -31 -1 -49 14 -73 23 -38 40 -42 41 -10 0 12 2 42
4 67 2 25 6 80 9 122 3 42 15 110 27 150 11 40 21 78 23 83 1 6 22 44 46 86
l45 75 -6 105 c-3 57 -10 113 -16 124 -6 11 -19 39 -28 63 l-18 42 -354 0
-353 0 0 -594z"/>
<path d="M740 3958 c11 -24 27 -55 35 -70 22 -39 21 -241 -1 -259 -19 -16
-104 -193 -104 -217 0 -9 -7 -49 -15 -87 -23 -109 -20 -389 5 -484 11 -41 20
-84 20 -95 0 -25 38 -120 62 -156 12 -18 17 -47 17 -105 0 -123 49 -286 117
-385 17 -25 29 -51 27 -57 -3 -7 0 -13 7 -13 6 0 10 -6 9 -12 -3 -26 1 -39 11
-33 5 3 6 15 1 29 -6 14 -4 46 4 87 8 35 17 94 21 132 4 37 8 67 9 67 2 0 23
-8 47 -19 42 -18 44 -20 61 -90 48 -201 262 -336 465 -292 174 37 305 186 319
364 3 45 12 79 22 91 51 60 191 60 242 0 10 -12 19 -46 22 -91 14 -178 145
-327 319 -364 204 -44 413 88 466 293 19 70 26 79 70 92 20 7 22 4 22 -36 0
-86 36 -251 53 -245 6 2 16 19 23 38 7 19 13 28 13 21 1 -18 21 -5 21 14 0 9
-5 12 -12 8 -7 -4 -8 -3 -4 5 4 6 12 9 17 6 14 -9 45 93 71 230 14 74 48 135
76 135 49 0 91 -77 77 -140 -4 -19 -3 -30 4 -30 6 0 11 5 11 10 0 6 4 10 9 10
5 0 13 -25 17 -56 6 -52 5 -58 -17 -75 -13 -9 -28 -17 -33 -16 -5 1 -12 -11
-17 -27 -4 -15 -16 -37 -26 -48 -16 -18 -18 -18 -23 -2 -5 13 -9 10 -18 -14
-7 -18 -17 -46 -24 -64 -6 -17 -26 -52 -43 -77 -36 -53 -65 -113 -65 -133 0
-7 9 5 19 27 11 22 33 55 50 72 27 28 35 31 50 21 16 -10 23 -7 46 20 33 39
50 40 69 5 13 -25 12 -31 -2 -56 -9 -15 -24 -30 -34 -33 -10 -3 -18 -9 -18
-14 0 -5 -26 -20 -57 -35 -32 -15 -65 -30 -73 -34 -8 -4 -27 -29 -41 -56 -15
-26 -28 -42 -31 -35 -2 7 -17 -1 -37 -20 -27 -26 -29 -31 -11 -25 14 4 20 3
16 -3 -3 -5 -22 -13 -41 -16 -28 -6 -41 -17 -69 -60 -33 -52 -56 -76 -56 -59
0 5 5 14 12 21 7 7 8 12 4 12 -9 0 -45 -42 -46 -53 0 -5 -13 -25 -28 -45 -16
-20 -45 -59 -65 -87 -149 -201 -356 -420 -462 -489 -33 -21 -71 -46 -85 -55
-52 -34 -113 -46 -240 -46 -82 0 -141 5 -170 14 -61 20 -203 114 -268 178 -29
29 -58 53 -63 53 -5 0 -9 4 -9 9 0 5 -22 32 -49 60 -28 28 -78 86 -113 129
-34 42 -67 82 -73 89 -5 6 -18 22 -28 35 -9 13 -28 37 -42 54 -14 18 -25 35
-25 38 0 3 -7 14 -16 24 -9 10 -36 66 -61 123 -25 57 -49 112 -54 121 -5 10
-9 25 -9 35 0 9 -3 13 -7 9 -5 -4 -8 -24 -8 -44 0 -31 -4 -38 -22 -40 -13 -2
-23 -8 -23 -13 0 -14 58 -11 63 4 2 6 10 -8 17 -33 8 -25 22 -54 32 -66 10
-11 18 -27 18 -36 0 -9 7 -21 15 -28 8 -7 15 -17 15 -23 0 -25 185 -265 294
-382 60 -65 71 -99 33 -109 -21 -5 -63 -27 -132 -69 -46 -28 -177 -142 -269
-236 -93 -94 -103 -101 -170 -121 -39 -12 -102 -33 -141 -47 -38 -14 -77 -26
-85 -28 -53 -12 -407 -149 -511 -198 -31 -15 -66 -27 -78 -27 -12 0 -31 -5
-42 -10 -17 -10 -19 -22 -19 -115 l0 -105 626 0 626 0 -7 32 c-7 33 -18 75
-54 203 -36 125 -37 153 -10 181 13 13 33 35 44 50 36 47 60 71 83 83 12 7 20
17 16 23 -4 6 -3 8 4 4 6 -3 17 3 25 14 7 11 17 17 20 13 4 -3 7 2 7 12 0 10
3 15 6 12 4 -3 16 5 26 19 11 14 22 23 25 20 8 -8 44 30 48 50 1 11 8 18 14
17 15 -4 14 24 -1 30 -10 4 -9 8 2 16 12 8 13 19 3 63 -11 55 -7 108 9 119 5
3 37 -20 70 -53 34 -32 66 -58 71 -58 4 0 28 -14 53 -31 68 -47 121 -66 212
-79 138 -19 307 18 394 84 14 12 41 32 60 46 18 14 48 39 66 57 19 18 38 33
42 33 5 0 10 6 12 12 11 31 17 -107 8 -149 -8 -33 -8 -49 -1 -51 6 -2 11 -17
11 -32 0 -28 41 -86 52 -74 3 3 15 -6 26 -20 10 -14 22 -22 26 -19 3 3 6 -2 6
-12 0 -10 2 -16 5 -13 5 5 31 -16 100 -82 58 -56 115 -126 115 -143 0 -16 -15
-78 -74 -302 -9 -32 -16 -63 -16 -67 0 -4 281 -8 625 -8 l625 0 0 1725 c0 949
-4 1725 -8 1725 -4 0 -13 -5 -19 -11 -22 -22 -43 -2 -43 39 0 40 33 92 58 92
8 0 12 25 12 85 0 47 -3 85 -8 85 -4 0 -19 -13 -34 -30 -14 -17 -35 -30 -47
-30 -11 0 -27 -12 -37 -30 -13 -20 -27 -30 -48 -32 -20 -2 -31 -9 -31 -18 0
-33 -74 -66 -90 -40 -10 16 -25 11 -25 -9 0 -10 -6 -24 -14 -30 -12 -10 -17
-8 -27 11 -6 13 -18 26 -25 31 -9 5 -10 16 -4 37 10 33 10 36 10 50 0 15 26
12 40 -4 10 -13 16 -10 40 17 15 18 29 41 32 52 2 14 10 19 26 17 12 -2 37 6
55 17 26 16 36 18 45 9 9 -9 12 -4 12 24 0 32 4 37 29 43 16 3 39 3 52 0 33
-8 49 30 49 112 l0 63 -105 0 -105 0 11 -24 c12 -25 5 -76 -10 -76 -5 0 -11
16 -14 36 -11 67 7 64 -386 64 l-356 -1 -23 -35 c-12 -20 -22 -47 -22 -60 0
-18 -5 -25 -16 -22 -11 2 -22 23 -31 57 -7 30 -15 57 -17 59 -9 9 -46 -35 -46
-55 0 -28 -17 -38 -35 -23 -19 16 -20 60 -1 60 8 0 18 4 21 10 4 6 -322 10
-931 10 -863 0 -936 -1 -930 -16 6 -15 4 -15 -16 -2 -17 11 -57 16 -146 17
l-123 2 21 -43z m2973 18 c26 -20 13 -62 -24 -75 -24 -8 -30 -7 -39 9 -14 27
-12 50 4 50 8 0 16 7 20 15 7 18 16 18 39 1z m-120 -70 c9 -7 17 -20 17 -29 0
-9 9 -32 21 -52 26 -44 19 -67 -18 -63 -24 3 -30 10 -38 45 -6 23 -16 48 -23
55 -15 15 -15 31 0 46 15 15 19 15 41 -2z m-91 -58 c18 -14 36 -89 30 -125 -5
-31 -30 -29 -42 2 -5 14 -16 25 -24 25 -12 0 -14 -10 -11 -45 6 -56 -9 -81
-55 -97 -19 -6 -41 -17 -48 -25 -7 -7 -22 -13 -32 -13 -10 0 -20 -9 -23 -20
-5 -20 -32 -26 -53 -12 -37 26 -62 111 -29 98 10 -4 27 7 47 30 24 27 37 34
54 30 18 -5 27 1 45 30 19 31 26 35 50 30 21 -4 29 -2 29 8 0 7 7 19 15 26 9
7 14 19 11 27 -6 15 3 43 13 43 4 0 14 -6 23 -12z m76 -295 c30 -26 37 -82 14
-110 -11 -12 -25 -22 -33 -23 -28 -4 -41 0 -36 13 3 7 -1 21 -9 32 -20 27 -17
55 8 82 26 28 30 28 56 6z m304 -40 c21 -25 40 -105 27 -118 -17 -17 -41 9
-56 59 -20 68 -5 98 29 59z m-504 -70 c14 -13 22 -35 25 -76 6 -58 5 -59 -29
-79 -19 -11 -34 -25 -34 -31 0 -32 -14 11 -21 65 -4 35 -11 77 -15 95 -5 25
-2 32 13 36 33 9 41 7 61 -10z m432 -21 c22 -20 23 -80 1 -105 -12 -15 -16
-15 -42 -1 -37 18 -40 66 -7 101 26 28 24 27 48 5z m-112 -71 c-5 -25 -27 -23
-34 3 -9 36 5 54 23 30 7 -10 12 -25 11 -33z m-1055 -51 c-45 -44 -79 -80 -74
-80 14 0 75 33 110 59 31 23 34 24 27 6 -18 -46 -16 -48 12 -16 l29 34 7 -54
c11 -85 35 -143 120 -282 79 -131 110 -232 125 -410 17 -199 17 -203 -21 -216
-17 -6 -32 -10 -33 -9 0 2 -6 26 -13 53 -16 62 -56 141 -90 178 -14 15 -22 27
-18 27 15 0 96 -61 96 -72 0 -6 3 -9 6 -6 9 9 -21 60 -53 89 -47 43 -92 60
-218 79 -109 17 -126 18 -192 4 -39 -8 -92 -27 -118 -42 -25 -15 -72 -41 -103
-58 -53 -29 -57 -33 -55 -65 2 -19 -7 -55 -19 -81 l-21 -47 -28 21 c-24 18
-43 21 -119 21 -76 0 -95 -3 -119 -21 l-28 -21 -21 47 c-12 26 -21 62 -19 81
2 32 -2 36 -55 65 -31 17 -78 44 -105 59 -26 16 -80 35 -118 42 -62 12 -84 12
-190 -5 -155 -23 -222 -57 -261 -132 -18 -34 -18 -49 1 -25 17 23 75 67 89 67
5 0 -2 -12 -16 -27 -34 -37 -74 -116 -90 -178 -7 -27 -13 -51 -13 -52 -1 -1
-18 2 -38 8 -24 6 -37 16 -37 27 1 36 30 262 50 387 33 204 56 275 143 445 43
85 80 157 82 159 2 2 25 -7 51 -19 41 -21 56 -22 146 -17 90 5 105 3 151 -18
95 -43 187 -55 429 -55 304 0 505 34 633 107 68 39 63 25 -22 -57z m868 -81
c4 -24 12 -60 18 -79 14 -45 14 -50 -2 -50 -38 0 -66 76 -53 145 9 49 29 40
37 -16z m-162 -176 c1 -18 -2 -33 -6 -33 -5 0 -16 -14 -26 -31 -26 -47 -32
-28 -13 43 26 94 27 96 36 73 5 -11 9 -35 9 -52z m64 17 c-4 -5 -16 3 -27 17
-18 25 -18 25 3 18 14 -4 21 -2 22 7 1 7 4 2 6 -11 3 -13 1 -27 -4 -31z m547
-410 c0 -5 -4 -10 -9 -10 -5 0 -12 -11 -15 -24 -4 -16 -12 -23 -23 -22 -20 3
-20 7 -9 51 15 60 15 60 36 37 11 -12 20 -26 20 -32z m-2389 -7 c4 -4 -3 -9
-16 -9 -14 -1 -23 2 -20 6 3 5 -7 11 -22 13 -16 2 -11 3 11 1 21 -1 42 -6 47
-11z m921 10 c-18 -2 -30 -8 -27 -13 3 -4 -6 -7 -20 -6 -14 0 -25 2 -25 4 0 8
49 21 75 20 30 -1 30 -1 -3 -5z m214 -43 c30 0 57 -15 97 -53 98 -93 135 -262
86 -389 -66 -173 -226 -266 -409 -237 -81 12 -135 39 -196 99 -87 84 -122 194
-103 326 12 85 64 174 92 157 4 -2 14 1 22 7 8 6 18 9 22 7 5 -3 24 1 43 9 25
11 31 17 21 23 -10 7 -9 9 3 14 9 4 15 1 13 -6 -3 -17 54 -9 77 11 11 9 16 12
13 5 -5 -7 0 -9 14 -6 l21 6 -20 11 c-17 9 -6 11 53 8 76 -4 111 7 99 32 -3 6
1 3 9 -6 8 -10 27 -18 43 -18z m-1201 10 c-27 -12 -43 -12 -25 0 8 5 22 9 30
9 10 0 8 -3 -5 -9z m1015 0 c18 -12 2 -12 -25 0 -13 6 -15 9 -5 9 8 0 22 -4
30 -9z m-1163 -11 c7 -7 40 -10 87 -7 60 3 71 1 54 -8 l-20 -11 21 -6 c14 -3
19 -1 14 6 -3 7 2 5 13 -5 23 -20 80 -28 77 -11 -2 7 4 10 13 6 11 -4 12 -8 4
-13 -14 -8 -7 -14 34 -30 21 -8 25 -7 19 3 -4 6 5 4 20 -6 15 -10 31 -16 35
-13 26 16 78 -73 92 -157 20 -128 -16 -242 -104 -327 -60 -59 -114 -86 -193
-100 -100 -16 -182 0 -263 52 -206 135 -230 420 -51 586 35 31 47 37 101 45
14 3 27 5 31 6 3 0 10 -4 16 -10z m36 4 c-7 -2 -19 -2 -25 0 -7 3 -2 5 12 5
14 0 19 -2 13 -5z m1240 0 c-7 -2 -19 -2 -25 0 -7 3 -2 5 12 5 14 0 19 -2 13
-5z m1231 -22 c8 -13 -14 -51 -29 -51 -10 0 -15 10 -15 34 0 29 3 33 20 29 11
-3 22 -8 24 -12z m-2184 -16 c-7 -8 -18 -15 -24 -15 -6 0 -5 4 3 9 11 7 10 10
-5 14 -13 3 -10 5 10 6 24 1 27 -1 16 -14z m680 11 c0 -9 -40 -13 -46 -5 -3 5
6 9 20 9 14 0 26 -2 26 -4z m-10 -25 c0 -5 -9 -11 -21 -14 -16 -4 -18 -3 -8 9
13 16 29 19 29 5z m-55 -21 c-3 -5 -12 -10 -18 -10 -7 0 -6 4 3 10 19 12 23
12 15 0z m982 -52 c-15 -9 -19 -4 -11 16 5 14 9 15 15 5 5 -8 3 -17 -4 -21z
m413 -19 c19 -34 3 -75 -33 -90 -18 -7 -44 -25 -58 -41 -24 -26 -29 -28 -53
-17 -30 14 -32 28 -11 70 13 23 20 28 39 23 19 -4 26 1 40 30 14 30 27 40 58
45 4 0 12 -8 18 -20z m24 -242 c14 -10 17 -21 11 -45 -3 -18 -13 -32 -20 -32
-8 0 -21 -7 -30 -16 -20 -20 -24 -16 -32 28 -4 28 -1 39 18 57 27 25 30 25 53
8z m-84 -93 c0 -26 -17 -33 -26 -9 -8 20 3 48 16 40 5 -3 10 -17 10 -31z m-50
-35 c0 -19 -5 -29 -15 -29 -15 0 -22 50 -9 63 12 12 24 -4 24 -34z m-67 -29
c-3 -11 -9 -20 -14 -20 -14 0 -11 28 4 33 6 3 13 6 14 6 0 1 -1 -8 -4 -19z
m-83 -70 c17 0 8 -41 -12 -54 -23 -14 -27 -8 -34 50 l-5 49 19 -22 c11 -13 25
-23 32 -23z m280 -334 c0 -7 -7 -30 -16 -51 -13 -32 -18 -36 -40 -31 -13 4
-24 2 -24 -4 0 -5 6 -10 13 -10 12 -1 -38 -50 -52 -50 -4 0 -5 15 -3 34 3 28
10 37 33 45 16 5 29 17 29 25 0 9 9 16 20 16 13 0 20 7 20 20 0 11 5 20 10 20
6 0 10 -6 10 -14z m-270 -210 c0 -15 -21 -56 -29 -56 -12 0 -71 -59 -71 -71 0
-5 -11 -9 -25 -9 -16 0 -23 -4 -19 -14 3 -7 -2 -16 -10 -19 -9 -4 -16 -1 -16
5 0 7 -7 5 -17 -4 -22 -19 -73 -32 -73 -19 0 6 8 16 18 23 9 7 22 22 28 33 6
11 23 26 37 33 15 7 27 17 27 23 0 5 6 9 14 9 8 0 17 7 20 16 3 9 13 14 20 11
8 -3 20 1 26 8 7 8 16 13 20 10 4 -3 13 2 20 10 12 14 30 20 30 11z m-891
-488 c1 -5 -3 -8 -9 -8 -5 0 -10 12 -9 28 0 24 1 25 9 7 5 -11 9 -23 9 -27z
m-1062 -35 c-3 -10 -5 -4 -5 12 0 17 2 24 5 18 2 -7 2 -21 0 -30z m1301 5 c3
-22 -3 -32 -27 -46 -23 -14 -28 -21 -19 -30 22 -22 -3 -12 -53 20 -27 18 -49
36 -49 40 0 12 5 10 43 -12 34 -20 39 -19 47 15 11 50 53 59 58 13z"/>
<path d="M2408 2437 c-65 -25 -126 -77 -151 -126 -9 -19 -17 -36 -17 -38 0 -3
22 19 49 49 43 47 135 107 147 96 2 -3 -7 -20 -21 -38 -14 -19 -25 -47 -25
-63 0 -32 32 -91 58 -108 13 -8 1 -9 -48 -5 -50 3 -58 2 -35 -5 17 -5 84 -10
150 -10 109 -1 125 1 176 24 57 26 106 82 96 110 -2 6 -12 -4 -22 -24 -19 -39
-68 -72 -120 -82 -16 -3 -39 -9 -50 -12 -18 -6 -18 -5 2 13 26 23 43 62 43 99
0 25 -1 25 -19 9 -25 -23 -59 -13 -67 20 -10 39 2 57 33 49 27 -6 27 -6 9 14
-18 20 -18 20 35 14 30 -3 76 -14 102 -24 61 -24 70 -24 31 0 -48 30 -174 61
-240 60 -36 0 -81 -9 -116 -22z m60 -169 c18 -14 21 -19 8 -14 -14 5 -17 2
-12 -9 5 -13 2 -13 -19 1 -26 17 -30 26 -18 37 9 10 12 9 41 -15z"/>
<path d="M1310 2437 c-63 -22 -127 -57 -103 -57 6 0 31 8 55 19 24 10 70 21
103 25 l60 8 -26 -29 c-49 -52 -49 -133 -1 -179 23 -22 24 -25 7 -21 -11 3
-40 11 -65 17 -50 13 -86 38 -112 78 -16 23 -18 24 -18 7 1 -52 82 -102 184
-115 61 -7 242 3 254 14 3 4 -21 4 -54 0 l-59 -6 27 24 c47 42 63 104 35 141
-11 16 -12 14 -12 -15 0 -28 -4 -33 -23 -33 -28 0 -58 44 -48 70 4 12 14 16
32 12 18 -3 24 -1 20 9 -7 18 -7 18 46 -6 25 -11 64 -41 87 -66 22 -25 41 -41
41 -35 0 25 -87 105 -140 129 -79 36 -201 40 -290 9z m116 -169 c0 -19 -21
-25 -31 -8 -8 13 1 27 17 27 8 0 14 -9 14 -19z"/>
<path d="M486 3038 c-3 -13 -8 -48 -11 -78 -6 -55 -27 -100 -45 -100 -6 0 -10
9 -10 20 0 11 -4 20 -9 20 -6 0 -18 14 -28 30 -9 17 -25 30 -34 30 -25 0 -42
-26 -35 -54 9 -37 -1 -54 -30 -48 -17 3 -24 0 -24 -12 0 -9 -6 -16 -14 -16 -7
0 -19 -7 -26 -15 -11 -13 -10 -14 4 -9 21 8 20 -2 -3 -27 -10 -11 -33 -21 -51
-24 -23 -3 -45 -16 -69 -43 -21 -23 -50 -42 -69 -46 l-32 -8 0 -610 0 -609 26
20 c27 21 51 19 72 -7 10 -14 12 -12 12 14 0 32 44 92 55 75 3 -6 3 -27 -1
-46 -5 -31 -3 -37 14 -41 32 -9 17 -44 -19 -44 -16 0 -29 5 -29 10 0 6 -4 10
-10 10 -5 0 -10 -13 -10 -30 0 -35 -10 -38 -34 -11 -28 31 -49 16 -41 -30 7
-40 -1 -49 -23 -27 -9 9 -12 -51 -12 -273 0 -274 1 -285 22 -326 23 -44 18
-71 -7 -37 -13 17 -14 -9 -15 -225 l0 -243 28 7 c43 10 173 64 221 91 24 13
51 24 61 24 9 0 27 9 40 20 23 20 33 23 61 21 24 -2 89 28 96 45 4 10 9 11 18
4 19 -16 92 18 99 46 7 27 43 33 52 9 5 -12 10 -12 27 -3 12 7 29 12 37 13 8
1 54 14 101 28 84 27 90 31 194 130 59 56 125 119 146 139 20 21 42 38 48 38
5 0 14 6 18 13 8 13 99 74 162 109 37 20 39 36 9 69 -149 166 -157 176 -215
254 -29 38 -59 79 -68 90 -8 10 -15 23 -15 27 0 15 -27 8 -45 -12 -20 -22 -56
-23 -62 -4 -2 7 10 17 27 22 39 14 38 23 -2 20 -28 -3 -34 1 -36 20 -2 15 5
34 20 49 41 44 15 97 -55 108 -23 4 -50 14 -60 23 -15 14 -20 13 -52 -4 -27
-14 -37 -16 -47 -6 -10 10 -5 18 20 40 l32 27 -17 58 c-17 58 -31 69 -53 42
-17 -21 -37 -19 -43 5 -3 13 3 24 19 35 24 15 32 49 15 60 -15 9 -56 87 -69
133 -9 28 -21 47 -37 54 -13 6 -29 24 -36 39 -6 16 -14 29 -18 29 -13 0 -31
-24 -31 -43 0 -14 5 -17 20 -12 30 10 41 -2 28 -30 -20 -45 -67 -49 -110 -8
-36 34 -43 67 -21 104 15 26 23 30 46 25 16 -3 38 -1 49 5 17 9 20 18 15 55
-2 25 -13 54 -23 65 -11 12 -18 23 -17 25 1 2 0 11 -3 19 -4 9 1 24 10 34 9
10 16 22 16 27 0 5 9 20 20 34 12 15 20 41 20 65 0 30 7 46 31 71 27 27 30 37
24 61 -5 15 -9 33 -9 38 -1 6 -11 9 -23 7 -25 -3 -53 44 -53 90 0 18 -10 39
-26 55 -25 25 -26 28 -11 52 8 14 25 31 36 36 32 15 26 69 -9 73 -47 6 -80 24
-86 48 -8 30 -22 31 -28 2z m32 -604 c12 -8 22 -25 22 -37 0 -12 4 -28 9 -36
14 -21 3 -45 -33 -69 -37 -25 -74 -29 -82 -7 -10 25 -21 17 -28 -19 -4 -18
-14 -40 -24 -49 -16 -15 -21 -15 -46 -2 -37 19 -37 19 -31 -7 4 -16 -4 -34
-26 -61 -26 -32 -37 -38 -60 -35 -19 3 -29 0 -29 -8 0 -21 -17 -25 -46 -9
l-29 15 -3 -35 c-2 -19 -7 -35 -11 -35 -10 0 -63 40 -73 55 -14 19 -8 70 12
95 18 22 22 23 33 9 10 -12 16 -13 36 -3 16 8 31 9 42 4 20 -11 29 -4 29 26 0
33 52 67 89 59 25 -5 30 -3 33 17 2 17 9 22 25 21 15 -2 28 7 40 27 9 17 25
33 35 36 10 3 18 10 18 15 0 8 58 49 70 49 3 0 16 -7 28 -16z m-32 -361 c3
-10 10 -26 15 -35 11 -21 12 -69 1 -84 -4 -6 -22 -19 -39 -29 -32 -19 -33 -19
-47 0 -14 20 -15 20 -21 0 -17 -51 -26 -65 -55 -80 -17 -9 -40 -13 -50 -10
-14 5 -20 2 -20 -10 0 -9 -11 -27 -24 -40 -14 -14 -26 -34 -28 -46 -5 -33 -22
-33 -58 1 -17 16 -38 30 -46 30 -8 0 -14 5 -14 12 0 19 52 118 62 118 5 0 16
7 24 15 9 8 24 15 35 15 11 0 37 18 59 41 34 36 42 40 69 34 28 -6 31 -4 31
19 0 46 94 88 106 49z m223 -231 c17 -54 10 -77 -19 -62 -11 6 -20 17 -20 25
0 8 -7 15 -16 15 -13 0 -15 -7 -10 -35 9 -44 1 -58 -24 -45 -16 8 -19 5 -25
-20 -7 -32 -47 -70 -74 -70 -61 0 -77 93 -25 136 22 18 37 23 62 19 28 -5 32
-3 32 17 0 29 48 68 80 65 20 -2 28 -11 39 -45z m-280 -145 c32 -96 27 -118
-17 -77 -12 11 -26 20 -32 20 -6 0 -16 11 -22 25 -9 20 -8 28 5 43 10 10 17
26 17 35 0 9 6 17 14 17 7 0 22 -27 35 -63z m-139 -57 c10 -6 14 -21 11 -41
-2 -25 3 -37 20 -50 20 -15 21 -19 10 -33 -19 -22 -33 -20 -68 12 -38 35 -47
68 -25 98 19 26 29 29 52 14z m451 -45 c12 -36 23 -51 38 -53 40 -6 17 -52
-26 -52 -18 0 -28 10 -42 43 -10 23 -26 48 -35 56 -19 16 -20 33 -4 49 25 25
51 9 69 -43z m-554 -57 c-3 -8 -6 -5 -6 6 -1 11 2 17 5 13 3 -3 4 -12 1 -19z
m473 -18 c28 -28 26 -75 -5 -105 -32 -33 -70 -32 -91 1 -10 14 -20 21 -23 16
-3 -5 -16 -14 -28 -21 -23 -12 -32 -51 -13 -51 6 0 22 7 35 16 24 16 25 15 25
-4 0 -26 -37 -62 -63 -62 -56 0 -80 52 -47 105 20 33 56 50 83 39 10 -3 18 3
22 18 10 32 45 68 67 68 10 0 27 -9 38 -20z m312 -97 c28 -25 23 -77 -9 -108
-31 -28 -36 -29 -63 -15 -15 8 -19 5 -25 -18 -3 -15 -15 -36 -25 -47 -10 -11
-20 -31 -22 -45 -5 -41 -29 -29 -49 25 -23 61 -25 105 -4 105 8 0 15 5 15 10
0 6 12 16 26 22 23 11 29 10 45 -11 l19 -23 0 38 c0 30 6 43 28 61 33 27 40
28 64 6z m-572 -39 c17 -44 13 -57 -15 -50 -20 5 -25 3 -25 -14 0 -22 -20 -26
-38 -8 -23 23 -14 66 16 81 40 22 51 20 62 -9z m-116 -136 c15 -25 -38 -77
-63 -61 -31 20 0 87 38 80 8 -1 19 -10 25 -19z m335 -67 c7 -5 15 -26 17 -47
5 -68 -59 -110 -100 -66 -20 23 -16 53 12 92 23 30 45 37 71 21z m125 -58
c-21 -18 -45 -32 -53 -31 -17 3 -28 28 -12 28 5 0 27 11 47 25 52 35 66 19 18
-22z m-322 -24 c3 -9 10 -9 26 0 34 18 60 5 72 -37 13 -48 13 -52 -4 -52 -7 0
-21 11 -30 25 -23 35 -37 22 -34 -30 4 -58 -12 -60 -39 -5 -25 53 -30 110 -9
110 8 0 16 -5 18 -11z m-42 -77 c0 -4 -9 -15 -20 -25 -24 -20 -24 -27 -7 -51
11 -15 17 -17 35 -7 29 15 28 0 -1 -28 -29 -26 -47 -21 -81 24 -30 39 -30 39
-11 68 10 15 25 23 50 24 19 1 35 -2 35 -5z m-242 -194 c15 -15 15 -48 1 -68
-9 -13 -10 -13 -6 0 6 21 -11 50 -28 50 -9 0 -12 6 -9 15 7 18 26 19 42 3z
m872 -10 c0 -19 -41 -98 -51 -98 -12 0 -11 11 6 40 20 36 19 40 -15 40 -20 0
-30 5 -30 15 0 11 12 15 45 15 28 0 45 -4 45 -12z m-930 -32 c0 -8 6 -21 14
-29 15 -14 15 -83 0 -81 -13 2 -31 43 -39 87 -6 30 -4 37 9 37 9 0 16 -6 16
-14z m800 -20 c0 -39 -12 -86 -22 -86 -6 0 -7 16 -3 40 5 27 3 40 -4 40 -7 0
-14 -7 -17 -15 -7 -18 -24 -20 -24 -3 0 19 31 48 52 48 12 0 18 -7 18 -24z m8
-113 c-4 -22 -22 -20 -26 1 -2 10 3 16 13 16 10 0 15 -7 13 -17z m-248 -92 c0
-21 -26 -36 -36 -20 -9 15 3 39 21 39 8 0 15 -9 15 -19z"/>
<path d="M520 1719 c0 -11 5 -17 10 -14 6 3 10 13 10 21 0 8 -4 14 -10 14 -5
0 -10 -9 -10 -21z"/>
<path d="M600 1455 c0 -8 7 -15 15 -15 8 0 15 7 15 15 0 8 -7 15 -15 15 -8 0
-15 -7 -15 -15z"/>
<path d="M915 1370 c-7 -23 1 -40 19 -40 15 0 25 27 19 48 -7 19 -31 14 -38
-8z"/>
<path d="M804 1295 c-7 -18 2 -45 15 -45 12 0 24 37 16 50 -9 15 -25 12 -31
-5z"/>
<path d="M654 2452 c-6 -4 -14 -18 -18 -32 l-7 -25 20 24 c27 30 29 50 5 33z"/>
<path d="M672 2385 c-7 -14 -12 -34 -11 -43 0 -10 5 -6 11 11 5 15 16 27 25
27 8 0 13 5 11 12 -8 22 -24 19 -36 -7z"/>
<path d="M3297 2404 c-10 -10 -9 -58 2 -87 6 -14 6 -40 1 -62 -5 -21 -5 -34
-1 -29 13 16 30 108 27 144 -3 33 -15 47 -29 34z"/>
<path d="M684 2357 c-6 -16 -8 -53 -6 -92 2 -23 4 -27 12 -15 13 20 13 63 0
55 -5 -3 -10 -1 -10 4 0 6 4 11 8 11 4 0 9 11 10 25 2 27 -5 33 -14 12z"/>
<path d="M626 2322 c-10 -16 13 -97 24 -86 6 6 4 28 -4 53 -7 26 -16 39 -20
33z"/>
<path d="M3316 2195 c-3 -8 -1 -15 4 -15 6 0 10 7 10 15 0 8 -2 15 -4 15 -2 0
-6 -7 -10 -15z"/>
<path d="M835 2110 c4 -11 2 -20 -3 -20 -13 0 -9 -40 7 -72 15 -29 37 -43 46
-28 4 6 1 10 -4 10 -8 0 -7 6 0 18 15 24 3 76 -15 69 -9 -4 -12 0 -9 12 3 11
-2 21 -12 25 -13 5 -15 2 -10 -14z"/>
<path d="M3144 2078 c-9 -18 -22 -36 -28 -40 -6 -4 -7 -10 -4 -14 4 -3 1 -22
-7 -41 -21 -50 -19 -51 16 -7 19 25 29 46 26 61 -2 12 0 28 4 35 6 9 9 3 9
-17 0 -22 3 -26 9 -16 5 8 6 22 2 30 -5 9 -6 22 -4 29 9 25 -7 11 -23 -20z
m-13 -71 c-10 -9 -11 -8 -5 6 3 10 9 15 12 12 3 -3 0 -11 -7 -18z"/>
<path d="M715 2065 c9 -55 39 -119 77 -167 44 -56 47 -32 4 35 -20 30 -40 74
-45 98 -5 23 -17 49 -26 58 -16 15 -17 13 -10 -24z"/>
<path d="M3056 1965 c-4 -14 -2 -33 4 -43 9 -14 10 -12 5 11 -4 19 -2 26 5 22
6 -3 10 3 10 14 0 29 -17 26 -24 -4z"/>
<path d="M886 1957 c3 -10 9 -15 12 -12 3 3 0 11 -7 18 -10 9 -11 8 -5 -6z"/>
<path d="M925 1960 c-3 -5 -1 -10 5 -10 7 0 9 -7 6 -16 -3 -8 -2 -12 4 -9 13
8 13 45 1 45 -6 0 -13 -4 -16 -10z"/>
<path d="M946 1912 c-7 -12 27 -127 45 -148 6 -7 7 -19 3 -26 -5 -10 -4 -10 5
-2 9 8 8 18 -4 40 -8 16 -15 36 -15 44 -1 31 -27 103 -34 92z"/>
<path d="M3040 1905 c0 -11 -7 -33 -15 -49 -8 -15 -15 -36 -15 -45 0 -9 -11
-46 -24 -84 -14 -37 -21 -67 -15 -67 5 0 12 14 16 30 3 17 10 33 14 36 5 3 9
13 9 23 0 10 7 32 15 47 8 16 15 38 15 50 0 11 5 25 11 31 8 8 8 16 0 30 -10
17 -10 17 -11 -2z"/>
<path d="M840 1810 c0 -10 6 -34 14 -52 8 -18 17 -42 21 -52 3 -12 9 -16 15
-10 5 5 1 34 -11 72 -20 61 -39 81 -39 42z"/>
<path d="M1890 1630 c0 -5 9 -10 21 -10 11 0 17 5 14 10 -3 6 -13 10 -21 10
-8 0 -14 -4 -14 -10z"/>
<path d="M2080 1630 c-12 -8 -11 -10 8 -10 12 0 22 5 22 10 0 13 -11 13 -30 0z"/>
</g>
</svg>
